<?xml version="1.0" encoding="UTF-8"?>
<svg width="140px" height="32px" viewBox="0 0 140 32" xmlns="http://www.w3.org/2000/svg">
    
    <!-- Graphic Symbol Part - Split into three paths -->
    
    <!-- Left Shape -->
    <path d="M8.78764977,4.50462673 L8.78764977,19.2024147 C8.98589862,22.1935668 7.74953917,28.2234286 1.63271889,30.3496959 L-9.08606523e-13,25.6544885 C4.1516129,24.211447 3.8278341,19.5365622 3.82451613,19.4895576 L3.8164977,19.2921382 L3.8164977,4.50462673 L8.78764977,4.50462673 Z" 
          fill="#07AAFF" 
          fill-rule="evenodd" 
          stroke="none"/>
          
    <!-- Right Shape -->
    <path d="M26.8038802,0.5 L28.4365991,5.19520737 C24.2851244,6.63824885 24.608765,11.3132719 24.6119447,11.3601382 L24.6201014,11.5575576 L24.6201014,26.3450691 L19.6489493,26.3450691 L19.6489493,11.6474194 C19.4507005,8.65612903 20.6870599,2.62640553 26.8038802,0.5 Z" 
          fill="#07AAFF" 
          fill-rule="evenodd" 
          stroke="none"/>
          
    <!-- Middle Shape (Rectangle) -->
    <path d="M16.7039309,12.9900783 L16.7039309,17.8596175 L11.7327788,17.8596175 L11.7327788,12.9900783 L16.7039309,12.9900783 Z" 
          fill="#07AAFF" 
          fill-rule="evenodd" 
          stroke="none"/>
          
    <!-- Brand Name -->
    <text x="33" y="24" font-family="Roboto, Arial, sans-serif" font-size="22" font-weight="700" fill="#07AAFF">JUHE</text>
    <text x="96" y="22" font-family="Roboto, Arial, sans-serif" font-size="18" font-weight="400" fill="#07AAFF"> API </text>
</svg>